<?xml version="1.0" standalone="no"?>
<!DOCTYPE svg PUBLIC "-//W3C//DTD SVG 20010904//EN"
 "http://www.w3.org/TR/2001/REC-SVG-20010904/DTD/svg10.dtd">
<svg version="1.0" xmlns="http://www.w3.org/2000/svg"
 width="16.000000pt" height="16.000000pt" viewBox="0 0 16.000000 16.000000"
 preserveAspectRatio="xMidYMid meet">
<metadata>
Created by potrace 1.11, written by Peter Selinger 2001-2013
</metadata>
<g transform="translate(0.000000,16.000000) scale(0.002286,-0.002286)"
fill="#000000" stroke="none">
<path d="M5115 6909 c-27 -4 -69 -10 -93 -13 -23 -4 -84 -20 -135 -37 -324
-108 -582 -302 -839 -634 -87 -112 -190 -265 -250 -371 -18 -32 -41 -72 -50
-89 -31 -53 -137 -273 -183 -380 -51 -117 -155 -400 -155 -422 0 -27 -18 -3
-25 33 -11 61 -83 303 -121 409 -78 216 -168 413 -267 580 -52 86 -140 220
-157 235 -3 3 -23 28 -45 55 -241 302 -573 471 -905 461 -286 -10 -497 -120
-648 -341 -214 -314 -170 -772 108 -1124 98 -124 306 -299 483 -406 42 -25 77
-48 77 -50 0 -1 -331 -2 -735 -1 -729 1 -735 1 -736 -19 -4 -105 0 -1715 4
-1722 4 -6 89 -10 212 -10 113 0 209 -4 213 -8 4 -3 7 -691 7 -1528 l0 -1522
2625 -3 2626 -2 -1 1530 c0 1523 0 1530 20 1531 11 0 110 1 219 2 l200 2 0
868 c1 482 -3 871 -8 874 -4 3 -294 5 -643 5 -350 0 -632 3 -627 7 5 4 54 43
109 86 302 236 506 503 606 793 50 144 61 208 65 367 2 132 0 161 -21 243 -41
160 -101 268 -209 377 -119 118 -272 195 -446 222 -49 8 -226 9 -275 2z m262
-505 c86 -29 130 -68 170 -154 23 -48 27 -68 27 -160 1 -157 -45 -292 -162
-468 -175 -266 -607 -570 -1092 -769 l-95 -39 -173 -2 -172 -2 6 28 c10 42 67
195 118 322 212 517 529 956 821 1133 50 31 230 114 230 106 0 -1 10 1 22 5
80 25 225 25 300 0z m-3344 -173 c108 -26 222 -97 322 -203 37 -38 78 -86 91
-106 14 -20 28 -39 32 -42 8 -6 10 -9 95 -150 102 -169 171 -324 245 -545 55
-164 72 -225 64 -225 -12 0 -194 57 -282 88 -335 118 -615 279 -795 457 -134
132 -203 278 -203 424 0 93 16 149 60 206 73 97 214 133 371 96z m1028 -1866
c1 -14 1 -803 0 -837 l-1 -28 -1093 0 -1092 0 1 433 c1 237 2 434 3 437 2 10
2181 5 2182 -5z m3054 6 c7 -1 10 -150 10 -433 l0 -433 -1093 -3 c-1035 -2
-1092 -1 -1093 15 -1 23 -1 788 0 828 l1 30 1083 -1 c595 -1 1087 -2 1092 -3z
m-3057 -1096 c7 -7 6 -2825 -2 -2832 -3 -3 -396 -6 -873 -6 l-868 0 -1 1419
-1 1419 61 5 c81 7 1677 2 1684 -5z m2589 5 l41 0 -1 -1422 -2 -1421 -868 0
c-477 0 -870 3 -873 6 -4 4 -7 642 -7 1419 l0 1413 109 5 c86 4 688 4 1601 0z"/>
</g>
</svg>
